# xmcd CD database file
#
# Track frame offsets:
#	150
#	16947
#	33437
#	59178
#	74060
#	88862
#	103800
#	121905
#	143307
#	161656
#	182984
#
# Disc length: 2636 seconds
#
# Revision: 1
# Processed by: cddbd v1.5.2PL0 Copyright (c) Steve Scherf et al.
# Submitted via: Feurio! 1.68 - http://www.feurio.com
#
DISCID=9e0a4a0b
DTITLE=JONGE-RURAL - RURAL
DYEAR=1900
DGENRE=
TTITLE0=Blues Nordestino
TTITLE1=Teias
TTITLE2=Vampiro
TTITLE3=Desabotoa Coracao
TTITLE4=Porque Hoje Vai Chover
TTITLE5=Estrada do Sertao
TTITLE6=Velho Tropeiro
TTITLE7=Joa Maria de Agostinho
TTITLE8=Rock Comendo Cereja
TTITLE9=Solito
TTITLE10=Vida de Mascate
EXTD=
EXTT0=
EXTT1=
EXTT2=
EXTT3=
EXTT4=
EXTT5=
EXTT6=
EXTT7=
EXTT8=
EXTT9=
EXTT10=
PLAYORDER=
